<svg xmlns="http://www.w3.org/2000/svg" width="78" height="78" fill="none"><g filter="url(#a)"><circle cx="39" cy="35" r="35" fill="#B0B0B0" fill-opacity=".21" shape-rendering="crispEdges"/></g><path fill="#000" d="M50.3858 30.3324h-3.9886c-.1534-.8523-.4389-1.6023-.8565-2.25-.4177-.6477-.929-1.1975-1.5341-1.6492s-1.2827-.7926-2.0327-1.0227c-.7415-.2301-1.5298-.3452-2.3651-.3452-1.5085 0-2.8593.3793-4.0525 1.1378-1.1847.7585-2.1222 1.8708-2.8125 3.3367-.6818 1.4659-1.0227 3.2557-1.0227 5.3693 0 2.1307.3409 3.929 1.0227 5.3949.6903 1.4659 1.6321 2.5738 2.8253 3.3238 1.1932.75 2.5355 1.125 4.027 1.125.8267 0 1.6108-.1108 2.3522-.3323.75-.2302 1.4276-.5668 2.0327-1.01.6051-.4432 1.1165-.9844 1.5341-1.6236.4261-.6477.7202-1.3892.8821-2.2244l3.9886.0128c-.213 1.2869-.6264 2.4716-1.24 3.554-.6051 1.0738-1.385 2.0028-2.3395 2.7869-.946.7756-2.0284 1.3764-3.2472 1.8026-1.2187.4261-2.5483.6392-3.9886.6392-2.2671 0-4.2869-.537-6.0597-1.6108-1.7727-1.0824-3.1704-2.6293-4.1932-4.6407-1.0142-2.0113-1.5213-4.4105-1.5213-7.1974 0-2.7955.5114-5.1946 1.5341-7.1975 1.0228-2.0113 2.4205-3.5539 4.1932-4.6278 1.7727-1.0824 3.7884-1.6236 6.0469-1.6236 1.3892 0 2.6846.2003 3.8864.6009 1.2102.392 2.2968.9716 3.2599 1.7386.9631.7585 1.7599 1.6875 2.3906 2.7869.6307 1.091 1.0568 2.3395 1.2784 3.7458Z"/><defs><filter id="a" width="270" height="270" x="-96" y="-100" color-interpolation-filters="sRGB" filterUnits="userSpaceOnUse"><feFlood flood-opacity="0" result="BackgroundImageFix"/><feGaussianBlur in="BackgroundImageFix" stdDeviation="50"/><feComposite in2="SourceAlpha" operator="in" result="effect1_backgroundBlur_17_199"/><feColorMatrix in="SourceAlpha" result="hardAlpha" values="0 0 0 0 0 0 0 0 0 0 0 0 0 0 0 0 0 0 127 0"/><feOffset dy="4"/><feGaussianBlur stdDeviation="2"/><feComposite in2="hardAlpha" operator="out"/><feColorMatrix values="0 0 0 0 0 0 0 0 0 0 0 0 0 0 0 0 0 0 0.25 0"/><feBlend in2="effect1_backgroundBlur_17_199" result="effect2_dropShadow_17_199"/><feBlend in="SourceGraphic" in2="effect2_dropShadow_17_199" result="shape"/><feColorMatrix in="SourceAlpha" result="hardAlpha" values="0 0 0 0 0 0 0 0 0 0 0 0 0 0 0 0 0 0 127 0"/><feMorphology in="SourceAlpha" operator="dilate" radius="4" result="effect3_innerShadow_17_199"/><feOffset dy="7"/><feGaussianBlur stdDeviation="5.5"/><feComposite in2="hardAlpha" k2="-1" k3="1" operator="arithmetic"/><feColorMatrix values="0 0 0 0 1 0 0 0 0 1 0 0 0 0 1 0 0 0 1 0"/><feBlend in2="shape" result="effect3_innerShadow_17_199"/><feColorMatrix in="SourceAlpha" result="hardAlpha" values="0 0 0 0 0 0 0 0 0 0 0 0 0 0 0 0 0 0 127 0"/><feMorphology in="SourceAlpha" operator="dilate" radius="36" result="effect4_innerShadow_17_199"/><feOffset dy="39"/><feGaussianBlur stdDeviation="28"/><feComposite in2="hardAlpha" k2="-1" k3="1" operator="arithmetic"/><feColorMatrix values="0 0 0 0 1 0 0 0 0 1 0 0 0 0 1 0 0 0 0.5 0"/><feBlend in2="effect3_innerShadow_17_199" result="effect4_innerShadow_17_199"/></filter></defs></svg>